PathFileType	4	(X/Y/Z)	./resultDataOpenSim/trcMotMarkerGrf/sub10/qtm-13-08.trc
DataRate	CameraRate	NumFrames	NumMarkers	Units	OrigDataRate	OrigDataStartFrame	OrigNumFrames
250.000000	250.000000	15	24	m	250.000000	463	529
Frame#	Time	L.Toe.Tip			R.Toe.Tip			L.Ankle.Lat			R.Ankle.Lat			L.Ankle.Med			R.Ankle.Med			L.Heel			R.Heel			L.Knee.Lat			R.Knee.Lat			L.Knee.Med			R.Knee.Med			L.Thigh.Upper			R.Thigh.Upper			L.ASIS			R.ASIS			V.Sacral			L.Acromium			R.Acromium			C7			L.Elbow			R.Elbow			L.Wrist.Lat			R.Wrist.Lat
		X1	Y1	Z1	X2	Y2	Z2	X3	Y3	Z3	X4	Y4	Z4	X5	Y5	Z5	X6	Y6	Z6	X7	Y7	Z7	X8	Y8	Z8	X9	Y9	Z9	X10	Y10	Z10	X11	Y11	Z11	X12	Y12	Z12	X13	Y13	Z13	X14	Y14	Z14	X15	Y15	Z15	X16	Y16	Z16	X17	Y17	Z17	X18	Y18	Z18	X19	Y19	Z19	X20	Y20	Z20	X21	Y21	Z21	X22	Y22	Z22	X23	Y23	Z23	X24	Y24	Z24

463	1.848	1.6397231	0.098605162	-0.1564424	0.87361984	0.038460795	0.1025849	1.5088749	0.073444429	-0.17054753	0.76282357	0.1254962	0.13602329	1.5239842	0.099745898	-0.090938301	0.79491653	0.13265281	0.052675283	1.466617	0.022875208	-0.122966	0.70863714	0.12503503	0.088459519	1.3942961	0.44981808	-0.17768504	0.99848897	0.45316013	0.14618833	1.4216585	0.42809752	-0.060440625	1.0357419	0.43295497	0.02369121	1.2662643	0.81474181	-0.2098042	1.1158466	0.84026917	0.15334235	1.29605	0.92496022	-0.12197011	1.2163317	0.92040392	0.12120388	1.0687623	0.92168536	-0.079377234	1.1757471	1.384646	-0.17809965	1.1420495	1.3836574	0.14348887	1.0757098	1.407341	-0.029208626	1.020474	1.0904158	-0.25628746	1.1555611	1.0521423	0.28239535	1.0664417	0.87299503	-0.35127344	1.392553	1.0049567	0.35811056
464	1.852	1.6420961	0.094642083	-0.1577761	0.87417002	0.038399214	0.10249415	1.510848	0.071393853	-0.1710712	0.76511938	0.12786208	0.13615007	1.5265168	0.097791326	-0.091310075	0.79798752	0.13435392	0.05283508	1.4675137	0.022466376	-0.12292391	0.71152019	0.12828869	0.08825631	1.3997472	0.44895381	-0.17878859	1.0041619	0.45314795	0.14560678	1.4278148	0.427688	-0.061659878	1.0417448	0.4324392	0.023305697	1.2732765	0.81479038	-0.21085359	1.1224663	0.83967478	0.15203431	1.3028726	0.92492068	-0.12299305	1.2231767	0.91976169	0.12008868	1.0756754	0.92168291	-0.080424216	1.1818832	1.384361	-0.17938075	1.147504	1.383291	0.14204961	1.0816071	1.4067884	-0.030685061	1.026201	1.0905767	-0.2576318	1.1604645	1.0513289	0.28015374	1.0719615	0.87288757	-0.3522939	1.3980565	1.0042775	0.35499304
465	1.856	1.6448075	0.090000212	-0.15910848	0.8746782	0.038305948	0.10231674	1.5129144	0.069663899	-0.17161544	0.76764422	0.13026535	0.13621929	1.5292061	0.096072406	-0.091590396	0.80124488	0.13602949	0.052990511	1.468345	0.022503327	-0.12275926	0.7146153	0.13155776	0.087893211	1.4051899	0.44806275	-0.18001064	1.0099855	0.45311363	0.14501017	1.433821	0.42714841	-0.062942526	1.0479212	0.43186205	0.022929753	1.2803062	0.81480765	-0.21195505	1.1291988	0.8390385	0.15074501	1.3097017	0.92486833	-0.12403727	1.2301373	0.91910226	0.11892445	1.0826051	0.92168043	-0.081459346	1.1880078	1.3840853	-0.18068689	1.1530029	1.3828883	0.14059644	1.0875195	1.4062216	-0.0321979	1.0320086	1.0906908	-0.25900719	1.1654013	1.0505026	0.27788448	1.0775688	0.87274583	-0.35336233	1.4033669	1.0035246	0.35191274
466	1.86	1.6479868	0.084686914	-0.16042008	0.87518231	0.038189221	0.10208527	1.5151253	0.068379319	-0.17209821	0.77038988	0.13268964	0.13617334	1.5321262	0.094688329	-0.091848531	0.80471042	0.13765896	0.053178534	1.4692379	0.023095819	-0.12251959	0.71791772	0.13486979	0.087369252	1.4105845	0.44717641	-0.18132963	1.0159868	0.45306459	0.14438752	1.4396407	0.42646044	-0.064269376	1.0542795	0.43121305	0.022570226	1.2873431	0.81480939	-0.21313464	1.1360266	0.83834539	0.14947757	1.3165135	0.92480635	-0.12509614	1.2371991	0.91842084	0.11771322	1.0895304	0.92167371	-0.082486215	1.1941187	1.38382	-0.18202832	1.1585494	1.3824601	0.13914513	1.093427	1.4056568	-0.033749257	1.0378855	1.0907513	-0.2604215	1.1703417	1.0496438	0.2755853	1.0832581	0.87256625	-0.35449602	1.4083863	1.0026857	0.34888884
467	1.864	1.6516168	0.078896403	-0.16156588	0.87572265	0.038055442	0.10185232	1.51756	0.067528145	-0.17252132	0.77333415	0.13509906	0.13599488	1.5353071	0.093640976	-0.092174202	0.80838479	0.1392255	0.053416225	1.47028	0.024209161	-0.1223406	0.72143318	0.13825726	0.086661628	1.41589	0.44633929	-0.18269008	1.0221678	0.45299765	0.14373405	1.4452631	0.4256306	-0.065595064	1.0608247	0.43047703	0.022230912	1.2943838	0.81481832	-0.21440896	1.1429566	0.83759106	0.14822995	1.3232937	0.92473966	-0.12617079	1.244342	0.9177147	0.11645963	1.0964426	0.92165594	-0.08349893	1.2002223	1.3835636	-0.18341124	1.1641368	1.3820408	0.13770217	1.0993041	1.4051004	-0.035334049	1.0438279	1.0907564	-0.26186731	1.1752318	1.0487521	0.27323312	1.0890196	0.87235054	-0.35570223	1.4131116	1.0017476	0.3459162
468	1.868	1.6555266	0.072931095	-0.16234522	0.87631264	0.037909729	0.10165468	1.520269	0.066951966	-0.17297362	0.77650154	0.13746948	0.13571443	1.5387061	0.092846657	-0.092637728	0.81224881	0.14073075	0.053677982	1.4715018	0.025654945	-0.12238254	0.72519765	0.14171006	0.085742721	1.4211262	0.44561027	-0.18404288	1.0285205	0.4529012	0.1430511	1.4507077	0.42470532	-0.066877033	1.0675591	0.42963858	0.021911001	1.301428	0.81486883	-0.21578058	1.15	0.83679774	0.14699055	1.3300384	0.92466725	-0.12726955	1.251554	0.91698065	0.11515852	1.1033358	0.92162631	-0.084496843	1.206324	1.3833162	-0.18483351	1.1697579	1.3816575	0.13626477	1.1051333	1.4045526	-0.036944636	1.0498379	1.090712	-0.26333398	1.1800269	1.0478513	0.270815	1.0948493	0.87210181	-0.35697333	1.4176814	1.0007098	0.34296959
469	1.872	1.6594863	0.067082483	-0.16258822	0.87694808	0.037763974	0.10149613	1.5232217	0.066439741	-0.17354786	0.77992759	0.13981089	0.1353743	1.5421949	0.092197658	-0.093251812	0.81630738	0.14218583	0.05391421	1.4728801	0.027230334	-0.12276725	0.72925109	0.14516549	0.084663611	1.4263752	0.44505448	-0.18537064	1.0350423	0.45276432	0.14234216	1.4560299	0.42377242	-0.068108884	1.0744835	0.4286865	0.021609264	1.3084771	0.81500937	-0.217233	1.1571563	0.83599884	0.14574185	1.3367487	0.92458384	-0.12840519	1.258832	0.91621501	0.11379308	1.1102017	0.92159203	-0.085485163	1.21242	1.3830822	-0.18628771	1.1754096	1.3813119	0.13483542	1.110918	1.4040187	-0.038578784	1.0559156	1.0906298	-0.2648331	1.184755	1.0469848	0.26836535	1.1007516	0.87182381	-0.35829063	1.4222649	0.99958856	0.34003303
470	1.876	1.6633331	0.061520656	-0.16217615	0.87762833	0.037634623	0.10135904	1.5263255	0.065863854	-0.17425183	0.78358682	0.14215679	0.13500237	1.5456077	0.091624312	-0.093944966	0.82060384	0.14359003	0.054091462	1.4743565	0.028813064	-0.12354476	0.73360166	0.14856987	0.083550803	1.431731	0.44472319	-0.18668468	1.04173	0.45258288	0.14161374	1.4613086	0.42294138	-0.069315724	1.0816045	0.42761651	0.021334153	1.3155355	0.81529279	-0.21873581	1.1644112	0.83520014	0.14448144	1.343421	0.92448846	-0.12958532	1.2661632	0.91541722	0.11234993	1.1170341	0.92156309	-0.086466963	1.2184996	1.3828695	-0.18776438	1.1810885	1.3810098	0.13342343	1.1166876	1.4035145	-0.040236928	1.0620643	1.0905242	-0.26639992	1.189497	1.0461884	0.2659405	1.1067326	0.87152091	-0.35963515	1.4269136	0.99839913	0.33711338
471	1.88	1.6670258	0.056349881	-0.16108206	0.87836132	0.037532685	0.10122133	1.5294832	0.065237591	-0.17497328	0.78741845	0.14452572	0.13460799	1.5487981	0.091119289	-0.09456375	0.82517838	0.14492642	0.054209303	1.4758556	0.030336915	-0.12466276	0.73821725	0.15192642	0.082497037	1.4372556	0.44463727	-0.18800248	1.0485657	0.45235656	0.1408784	1.4666056	0.4223107	-0.070513017	1.0889329	0.42643145	0.021107586	1.3226105	0.81575832	-0.22025837	1.1717425	0.83436541	0.14323728	1.3500479	0.92439173	-0.13080362	1.2735198	0.91459146	0.11083022	1.1238322	0.92154715	-0.087443308	1.2245558	1.3826854	-0.18925301	1.18679	1.3807746	0.13203382	1.1224898	1.4030662	-0.04191361	1.0682974	1.0904071	-0.26807205	1.1942625	1.0454477	0.26354004	1.1127983	0.87120189	-0.3610003	1.43157	0.99714375	0.33422227
472	1.884	1.6705858	0.051771564	-0.15947967	0.87916075	0.03745679	0.10106616	1.5326123	0.0646574	-0.175527	0.79141996	0.14689545	0.1341821	1.5516418	0.090699977	-0.094924026	0.83003119	0.14617703	0.054283338	1.4772974	0.031731373	-0.12593101	0.74304663	0.1552673	0.081510608	1.4429641	0.44478551	-0.18931609	1.0555226	0.45207826	0.14015626	1.4719318	0.4219356	-0.071670039	1.0964742	0.4251376	0.020955222	1.3297092	0.81641853	-0.22177941	1.1791351	0.83344988	0.1420445	1.356628	0.92431658	-0.13204475	1.2808703	0.91374561	0.10924616	1.1305949	0.92154945	-0.088422856	1.2305879	1.3825398	-0.19074635	1.1925124	1.3806154	0.13066368	1.128373	1.4027039	-0.043596204	1.0746366	1.0902841	-0.26986816	1.1989559	1.0447103	0.26110805	1.1189593	0.87088452	-0.36238808	1.4361649	0.99582021	0.33136447
473	1.888	1.6739554	0.048088036	-0.15780146	0.88004483	0.037393121	0.10089554	1.5355978	0.06420805	-0.17575246	0.79565723	0.14923206	0.13371188	1.5540343	0.090330426	-0.09489761	0.83513574	0.14733153	0.054331667	1.4786055	0.032906624	-0.12703369	0.74806988	0.15860602	0.080553032	1.4488314	0.44513286	-0.19057093	1.0625902	0.45172748	0.1394695	1.4772529	0.4218119	-0.072705814	1.1042298	0.42373778	0.020892068	1.3368294	0.81725863	-0.22329131	1.186609	0.83243268	0.1409079	1.3631705	0.92428852	-0.13329903	1.2881877	0.91288905	0.10761186	1.1373187	0.9215836	-0.089425926	1.2365922	1.3824456	-0.19224368	1.1982613	1.3805132	0.12930417	1.1343618	1.4024481	-0.045265942	1.0811029	1.0901479	-0.27172537	1.2034941	1.0439493	0.2586249	1.1252243	0.87058756	-0.3637936	1.4406616	0.99442603	0.32854134
474	1.892	1.6769005	0.045497994	-0.15655884	0.88103009	0.037322642	0.10073798	1.538236	0.063915117	-0.17559641	0.80019991	0.15152414	0.1331977	1.5559296	0.089895356	-0.094478127	0.84047429	0.14838184	0.05438492	1.4797119	0.033780582	-0.12765539	0.75333574	0.16192097	0.079576452	1.45481	0.44562851	-0.1916729	1.0697867	0.45128476	0.1388281	1.4825286	0.42189472	-0.073518912	1.1122037	0.42222742	0.02091809	1.3439497	0.81824542	-0.22479857	1.1942175	0.83131199	0.13980325	1.3696805	0.92432164	-0.13456414	1.2954509	0.91202825	0.10593697	1.1439966	0.92167884	-0.090471416	1.2425632	1.3824071	-0.19374013	1.2040465	1.3804427	0.12794462	1.1404436	1.4022985	-0.046898645	1.0877098	1.0899768	-0.27346877	1.207877	1.0431844	0.25612733	1.1315899	0.87031709	-0.36520613	1.4450512	0.99295428	0.32575256
475	1.896	1.6791143	0.043914456	-0.15596441	0.88212424	0.037231131	0.10062245	1.5402764	0.063760246	-0.17513741	0.80506709	0.1537665	0.13265939	1.5573542	0.089295725	-0.093780775	0.84604911	0.14931834	0.054491836	1.480565	0.034312651	-0.12767345	0.75891041	0.16517355	0.078552667	1.4608539	0.44621567	-0.19252391	1.0771249	0.45075216	0.1382121	1.4877493	0.42214373	-0.074039563	1.1204006	0.42059661	0.02102602	1.3510303	0.81934522	-0.22631001	1.2019644	0.83009351	0.13871093	1.3761371	0.92441535	-0.13583235	1.3026498	0.91116168	0.10422342	1.1506159	0.92186435	-0.09155667	1.2485015	1.3824062	-0.19521287	1.2098716	1.3803934	0.12657965	1.1465767	1.40224	-0.048472655	1.0944427	1.0897624	-0.27499591	1.2121664	1.0424488	0.25362768	1.1380418	0.87006552	-0.36662148	1.4493407	0.99139951	0.32299752
476	1.9	1.6804681	0.04302205	-0.15577301	0.88332637	0.037111104	0.10054479	1.5415642	0.063719578	-0.17453959	0.8102029	0.15593618	0.13214697	1.5583602	0.088566764	-0.092978925	0.85185626	0.15013807	0.054693552	1.4811436	0.034532356	-0.12724848	0.76479054	0.16834288	0.077501717	1.4669354	0.44685029	-0.19306914	1.0845428	0.45015085	0.13755374	1.4929366	0.4225539	-0.074274698	1.1288217	0.41883354	0.021209507	1.3580212	0.82054382	-0.22783077	1.2097607	0.82878401	0.13763246	1.3825055	0.9245629	-0.13709265	1.3097963	0.91027733	0.10246534	1.1571567	0.92214854	-0.09265002	1.2544077	1.3824134	-0.1966376	1.2157331	1.3803693	0.1252095	1.1527105	1.4022475	-0.049980328	1.1012133	1.0895397	-0.27645521	1.2165008	1.0417844	0.25104916	1.1445625	0.86981997	-0.36804245	1.4535414	0.98976484	0.32027668
477	1.904	1.6811398	0.042495038	-0.15556817	0.88462668	0.036953298	0.10047356	1.5421401	0.063781406	-0.17395957	0.81551485	0.15801145	0.13172828	1.5589787	0.087864643	-0.092223214	0.85784983	0.15085907	0.054988511	1.4814737	0.034544792	-0.12671224	0.7709118	0.17144433	0.076488524	1.4730393	0.44752057	-0.19333129	1.0919301	0.44949873	0.13677916	1.4980739	0.42314758	-0.074308709	1.1374598	0.41692727	0.021462285	1.3648728	0.82185146	-0.22935704	1.2175517	0.82738603	0.13657351	1.3887679	0.92476418	-0.13834252	1.3169536	0.9093532	0.1006519	1.1636009	0.92251604	-0.093698608	1.2602806	1.3824124	-0.19801431	1.2216302	1.3803738	0.12383623	1.158801	1.4022885	-0.051428626	1.1078914	1.0893505	-0.27805807	1.2211233	1.0412708	0.24823654	1.1511452	0.86957021	-0.36947652	1.45766	0.98805521	0.31758881
